HIERARCHY
ROOT Hips
{
	OFFSET 0.000000 100.481300 0.000000
	CHANNELS 6 Xposition Yposition Zposition Xrotation Yrotation Zrotation
	JOINT Spine
	{
		OFFSET -0.279200 12.230698 -2.892100
		CHANNELS 3 Xrotation Yrotation Zrotation
		JOINT Spine1
		{
			OFFSET -0.325700 14.269203 -3.374200
			CHANNELS 3 Xrotation Yrotation Zrotation
			JOINT Spine2
			{
				OFFSET -0.372300 16.307602 -0.352600
				CHANNELS 3 Xrotation Yrotation Zrotation
				JOINT Neck
				{
					OFFSET -0.418800 17.814194 8.416900
					CHANNELS 3 Xrotation Yrotation Zrotation
					JOINT Head
					{
						OFFSET 0.000000 7.031097 3.806800
						CHANNELS 3 Xrotation Yrotation Zrotation
						JOINT HeadTop_End
						{
							OFFSET 0.000000 24.646606 12.978600
							CHANNELS 3 Xrotation Yrotation Zrotation
							End Site
							{
								OFFSET 0.000000 27.854965 0.000000
							}
						}
					}
				}
				JOINT LeftShoulder
				{
					OFFSET 16.952999 14.495407 -7.737500
					CHANNELS 3 Xrotation Yrotation Zrotation
					JOINT LeftArm
					{
						OFFSET 9.308998 -2.777710 0.208600
						CHANNELS 3 Xrotation Yrotation Zrotation
						JOINT LeftForeArm
						{
							OFFSET 29.972298 0.000000 0.000000
							CHANNELS 3 Xrotation Yrotation Zrotation
							JOINT LeftHand
							{
								OFFSET 26.026505 0.000000 0.000000
								CHANNELS 3 Xrotation Yrotation Zrotation
								JOINT LeftHandThumb1
								{
									OFFSET 12.240501 -7.147949 9.207150
									CHANNELS 3 Xrotation Yrotation Zrotation
									JOINT LeftHandThumb2
									{
										OFFSET 4.138618 -2.389435 2.389433
										CHANNELS 3 Xrotation Yrotation Zrotation
										JOINT LeftHandThumb3
										{
											OFFSET 2.726913 -1.574387 1.574386
											CHANNELS 3 Xrotation Yrotation Zrotation
											JOINT LeftHandThumb4
											{
												OFFSET 3.941010 -2.275345 2.275342
												CHANNELS 3 Xrotation Yrotation Zrotation
												End Site
												{
													OFFSET -0.005798 5.087799 0.009903
												}
											}
										}
									}
								}
								JOINT LeftHandIndex1
								{
									OFFSET 24.424698 -1.985611 5.953459
									CHANNELS 3 Xrotation Yrotation Zrotation
									JOINT LeftHandIndex2
									{
										OFFSET 6.426697 0.000000 0.000000
										CHANNELS 3 Xrotation Yrotation Zrotation
										JOINT LeftHandIndex3
										{
											OFFSET 5.337898 0.000000 0.000000
											CHANNELS 3 Xrotation Yrotation Zrotation
											JOINT LeftHandIndex4
											{
												OFFSET 4.409401 0.000000 0.000000
												CHANNELS 3 Xrotation Yrotation Zrotation
												End Site
												{
													OFFSET 0.000000 4.409363 0.014373
												}
											}
										}
									}
								}
								JOINT LeftHandMiddle1
								{
									OFFSET 23.810104 0.000000 0.000000
									CHANNELS 3 Xrotation Yrotation Zrotation
									JOINT LeftHandMiddle2
									{
										OFFSET 7.176498 0.000000 0.000000
										CHANNELS 3 Xrotation Yrotation Zrotation
										JOINT LeftHandMiddle3
										{
											OFFSET 6.774902 0.000000 0.000000
											CHANNELS 3 Xrotation Yrotation Zrotation
											JOINT LeftHandMiddle4
											{
												OFFSET 5.403328 0.000000 0.000000
												CHANNELS 3 Xrotation Yrotation Zrotation
												End Site
												{
													OFFSET -0.027702 5.403244 0.017414
												}
											}
										}
									}
								}
								JOINT LeftHandRing1
								{
									OFFSET 22.908401 -0.839279 -6.020567
									CHANNELS 3 Xrotation Yrotation Zrotation
									JOINT LeftHandRing2
									{
										OFFSET 6.337502 0.000000 0.000000
										CHANNELS 3 Xrotation Yrotation Zrotation
										JOINT LeftHandRing3
										{
											OFFSET 5.779297 0.000000 0.000000
											CHANNELS 3 Xrotation Yrotation Zrotation
											JOINT LeftHandRing4
											{
												OFFSET 4.965698 0.000000 0.000000
												CHANNELS 3 Xrotation Yrotation Zrotation
												End Site
												{
													OFFSET 0.000000 4.965668 0.016186
												}
											}
										}
									}
								}
								JOINT LeftHandPinky1
								{
									OFFSET 20.037003 -1.530319 -10.950146
									CHANNELS 3 Xrotation Yrotation Zrotation
									JOINT LeftHandPinky2
									{
										OFFSET 5.254700 0.000000 0.000000
										CHANNELS 3 Xrotation Yrotation Zrotation
										JOINT LeftHandPinky3
										{
											OFFSET 4.810204 0.000000 0.000000
											CHANNELS 3 Xrotation Yrotation Zrotation
											JOINT LeftHandPinky4
											{
												OFFSET 3.647202 0.000000 0.000000
												CHANNELS 3 Xrotation Yrotation Zrotation
												End Site
												{
													OFFSET 0.000000 3.647186 0.011889
												}
											}
										}
									}
								}
							}
						}
					}
				}
				JOINT RightShoulder
				{
					OFFSET -15.141001 14.495407 -7.737500
					CHANNELS 3 Xrotation Yrotation Zrotation
					JOINT RightArm
					{
						OFFSET -9.308998 -2.777710 0.208500
						CHANNELS 3 Xrotation Yrotation Zrotation
						JOINT RightForeArm
						{
							OFFSET -29.972300 0.000000 0.000000
							CHANNELS 3 Xrotation Yrotation Zrotation
							JOINT RightHand
							{
								OFFSET -26.026505 0.000000 0.000000
								CHANNELS 3 Xrotation Yrotation Zrotation
								JOINT RightHandThumb1
								{
									OFFSET -12.240601 -7.148026 9.207092
									CHANNELS 3 Xrotation Yrotation Zrotation
									JOINT RightHandThumb2
									{
										OFFSET -4.138618 -2.389435 2.389433
										CHANNELS 3 Xrotation Yrotation Zrotation
										JOINT RightHandThumb3
										{
											OFFSET -2.726974 -1.574417 1.574421
											CHANNELS 3 Xrotation Yrotation Zrotation
											JOINT RightHandThumb4
											{
												OFFSET -3.941010 -2.275345 2.275343
												CHANNELS 3 Xrotation Yrotation Zrotation
												End Site
												{
													OFFSET 0.005814 5.087799 0.009927
												}
											}
										}
									}
								}
								JOINT RightHandIndex1
								{
									OFFSET -24.424698 -1.985657 5.953444
									CHANNELS 3 Xrotation Yrotation Zrotation
									JOINT RightHandIndex2
									{
										OFFSET -6.426697 0.000000 0.000000
										CHANNELS 3 Xrotation Yrotation Zrotation
										JOINT RightHandIndex3
										{
											OFFSET -5.337898 0.000000 0.000000
											CHANNELS 3 Xrotation Yrotation Zrotation
											JOINT RightHandIndex4
											{
												OFFSET -4.409401 0.000000 0.000000
												CHANNELS 3 Xrotation Yrotation Zrotation
												End Site
												{
													OFFSET 0.000000 4.409363 0.014408
												}
											}
										}
									}
								}
								JOINT RightHandMiddle1
								{
									OFFSET -23.810097 0.000000 0.000000
									CHANNELS 3 Xrotation Yrotation Zrotation
									JOINT RightHandMiddle2
									{
										OFFSET -7.176498 0.000000 0.000000
										CHANNELS 3 Xrotation Yrotation Zrotation
										JOINT RightHandMiddle3
										{
											OFFSET -6.774902 0.000000 0.000000
											CHANNELS 3 Xrotation Yrotation Zrotation
											JOINT RightHandMiddle4
											{
												OFFSET -5.403328 0.000000 0.000000
												CHANNELS 3 Xrotation Yrotation Zrotation
												End Site
												{
													OFFSET 0.027702 5.403244 0.017457
												}
											}
										}
									}
								}
								JOINT RightHandRing1
								{
									OFFSET -22.908302 -0.839325 -6.020576
									CHANNELS 3 Xrotation Yrotation Zrotation
									JOINT RightHandRing2
									{
										OFFSET -6.337502 0.000000 0.000000
										CHANNELS 3 Xrotation Yrotation Zrotation
										JOINT RightHandRing3
										{
											OFFSET -5.779297 0.000000 0.000000
											CHANNELS 3 Xrotation Yrotation Zrotation
											JOINT RightHandRing4
											{
												OFFSET -4.965698 0.000000 0.000000
												CHANNELS 3 Xrotation Yrotation Zrotation
												End Site
												{
													OFFSET 0.000000 4.965668 0.016226
												}
											}
										}
									}
								}
								JOINT RightHandPinky1
								{
									OFFSET -20.037003 -1.530334 -10.950259
									CHANNELS 3 Xrotation Yrotation Zrotation
									JOINT RightHandPinky2
									{
										OFFSET -5.254700 0.000000 0.000000
										CHANNELS 3 Xrotation Yrotation Zrotation
										JOINT RightHandPinky3
										{
											OFFSET -4.810204 0.000000 0.000000
											CHANNELS 3 Xrotation Yrotation Zrotation
											JOINT RightHandPinky4
											{
												OFFSET -3.647202 0.000000 0.000000
												CHANNELS 3 Xrotation Yrotation Zrotation
												End Site
												{
													OFFSET 0.000000 3.647186 0.011917
												}
											}
										}
									}
								}
							}
						}
					}
				}
			}
		}
	}
	JOINT LeftUpLeg
	{
		OFFSET 15.427100 -6.655098 0.678600
		CHANNELS 3 Xrotation Yrotation Zrotation
		JOINT LeftLeg
		{
			OFFSET 4.081073 -39.591068 13.024000
			CHANNELS 3 Xrotation Yrotation Zrotation
			JOINT LeftFoot
			{
				OFFSET -4.081074 -37.707932 -15.979700
				CHANNELS 3 Xrotation Yrotation Zrotation
				JOINT LeftToeBase
				{
					OFFSET 5.346399 -15.068900 20.645000
					CHANNELS 3 Xrotation Yrotation Zrotation
					JOINT LeftToe_End
					{
						OFFSET 2.754700 0.931300 11.300900
						CHANNELS 3 Xrotation Yrotation Zrotation
						End Site
						{
							OFFSET 0.000000 11.669021 0.000000
						}
					}
				}
			}
		}
	}
	JOINT RightUpLeg
	{
		OFFSET -15.569500 -6.655098 0.678600
		CHANNELS 3 Xrotation Yrotation Zrotation
		JOINT RightLeg
		{
			OFFSET -4.081825 -39.591045 13.023800
			CHANNELS 3 Xrotation Yrotation Zrotation
			JOINT RightFoot
			{
				OFFSET 4.081824 -37.707954 -15.979600
				CHANNELS 3 Xrotation Yrotation Zrotation
				JOINT RightToeBase
				{
					OFFSET -5.346400 -15.068900 20.645000
					CHANNELS 3 Xrotation Yrotation Zrotation
					JOINT RightToe_End
					{
						OFFSET -2.754700 0.931300 11.300900
						CHANNELS 3 Xrotation Yrotation Zrotation
						End Site
						{
							OFFSET 0.000000 11.669021 0.000000
						}
					}
				}
			}
		}
	}
}
MOTION
Frames: 4
Frame Time: 0.033333
-0.584422 33.604454 11.490471 -24.735194 2.725882 -2.515391 5.588695 0.217310 1.750246 11.184810 -0.856559 2.505099 11.184807 -0.856559 2.505098 5.297382 -0.396272 -2.135103 5.848527 -2.392103 1.501822 0.000001 0.000000 -0.000000 -2.495749 -9.709245 -13.073845 25.528090 0.208383 -65.028476 0.027756 -37.478583 0.006793 88.667494 -24.570554 29.978113 -7.295833 -8.900695 25.360255 8.221538 23.707448 -3.450914 0.000002 -0.000003 -0.000002 -0.000000 0.000000 0.000000 -5.303741 4.805799 -55.527662 0.750107 0.897717 -72.656390 0.000001 0.000014 -0.000002 0.000001 -0.000001 -0.000000 -1.763164 0.411605 -47.165444 -3.868868 -4.606319 -79.898433 -0.000003 -0.000008 0.000001 0.000001 -0.000002 0.000001 -2.611497 -0.321888 -63.863280 -3.325742 -4.619684 -71.620414 -0.000002 -0.000006 0.000003 -0.000000 0.000000 0.000000 -2.021531 -2.003359 -65.536355 -3.795588 -6.020340 -64.354466 0.000002 0.000002 -0.000002 0.000003 0.000001 -0.000000 -2.723468 7.007759 2.162503 46.685859 39.703842 47.523842 0.026635 39.055080 0.002412 42.336234 0.791072 1.712540 -6.007763 7.527375 -27.157478 6.511851 -17.374408 1.988897 0.000003 -0.000016 0.000001 -0.000000 0.000000 -0.000001 -8.027602 -4.046441 48.157229 1.131344 -1.876164 59.043898 -0.000000 0.000000 0.000000 -0.000000 0.000000 -0.000000 -2.278989 -1.470088 42.808702 -2.546512 3.398619 73.459081 -0.000001 0.000002 -0.000001 -0.000000 -0.000000 0.000001 -0.198822 0.336222 44.632479 -3.890167 5.676371 66.875618 0.000000 -0.000001 -0.000001 -0.000000 -0.000000 -0.000003 3.496288 1.847824 50.113402 -4.599347 8.339618 57.685599 -0.000002 0.000000 0.000000 0.000000 0.000001 -0.000002 -83.060189 -69.305001 55.311043 99.451475 -53.289071 -48.596697 67.632479 0.625526 -4.306252 -46.004360 -0.067857 -4.953459 -0.000000 0.000001 -0.000000 -42.834357 24.672535 -38.010423 117.457670 32.457995 19.386222 -21.728780 14.490040 -3.453791 -24.782665 0.155799 -0.922733 -0.000000 0.000000 0.000000 
-0.572735 33.595695 11.480125 -24.726656 2.671754 -2.477781 5.605469 0.142876 1.720520 11.218509 -1.000250 2.451281 11.218511 -1.000250 2.451280 5.194022 -0.391846 -2.138607 5.798138 -2.374898 1.534008 -0.000000 0.000000 0.000000 -2.492233 -9.685294 -13.045321 25.554840 1.116943 -65.326941 0.027976 -37.928102 0.006910 89.139672 -24.714239 29.943597 -7.266529 -8.774382 25.347131 8.269661 23.808617 -3.492790 0.000001 -0.000004 -0.000001 -0.000000 0.000000 0.000003 -5.302480 4.806670 -55.565167 0.750680 0.897828 -72.692440 0.000002 0.000014 -0.000002 0.000002 0.000001 0.000000 -1.760878 0.414073 -47.234580 -3.872534 -4.606966 -79.944072 -0.000003 -0.000008 0.000002 -0.000003 0.000001 -0.000000 -2.617231 -0.324698 -63.946786 -3.326769 -4.620025 -71.633153 -0.000002 -0.000009 0.000003 0.000000 0.000001 -0.000001 -2.033598 -2.008777 -65.632626 -3.807055 -6.025693 -64.463414 -0.000001 -0.000001 -0.000000 0.000001 -0.000001 0.000000 -2.762781 7.157073 2.331408 46.359356 39.306041 47.637366 0.026850 39.223796 0.002256 42.776239 0.814514 1.906188 -6.302419 8.002040 -26.586112 6.517188 -17.383386 1.990041 0.000005 -0.000016 0.000003 -0.000001 0.000000 0.000003 -8.023738 -4.054932 48.246609 1.131079 -1.876027 59.035463 -0.000000 -0.000001 0.000002 -0.000000 -0.000000 -0.000001 -2.283748 -1.465164 42.835671 -2.548681 3.399254 73.495458 -0.000001 0.000002 0.000001 -0.000001 0.000000 0.000003 -0.201157 0.338683 44.673143 -3.890191 5.676367 66.875646 0.000001 -0.000000 -0.000000 0.000001 0.000000 -0.000000 3.492529 1.851691 50.126079 -4.599353 8.339619 57.685619 -0.000001 0.000001 0.000001 -0.000001 0.000001 0.000001 -82.089749 -69.061969 55.980377 99.504463 -53.253472 -48.524823 67.259858 0.523007 -4.192467 -46.263299 -0.052049 -4.805150 -0.000000 -0.000000 0.000000 -43.072730 24.482793 -38.362966 117.472369 32.516652 19.426769 -21.336056 14.476775 -3.768997 -24.782674 0.155796 -0.922733 0.000000 0.000000 0.000000 
-0.512022 33.580460 11.438435 -24.703602 2.550995 -2.359086 5.639165 0.009604 1.644989 11.285708 -1.235341 2.322968 11.285708 -1.235341 2.322967 5.011210 -0.375182 -2.151947 5.721471 -2.319546 1.635616 0.000000 -0.000000 -0.000000 -2.497506 -9.697258 -13.027817 25.670848 2.104585 -65.600142 0.027644 -38.331756 0.007096 89.393871 -24.756939 30.069932 -7.235814 -8.641564 25.332823 8.322693 23.919874 -3.538941 0.000001 -0.000004 -0.000002 -0.000000 0.000000 -0.000002 -5.300623 4.807947 -55.618476 0.751079 0.897908 -72.715615 0.000001 0.000013 -0.000002 0.000001 -0.000001 0.000000 -1.759711 0.415574 -47.316118 -3.875781 -4.607537 -79.984445 0.000000 -0.000010 0.000002 -0.000002 0.000000 0.000001 -2.623386 -0.327704 -64.039717 -3.328525 -4.620595 -71.655098 -0.000002 -0.000006 0.000002 0.000001 0.000001 0.000000 -2.046182 -2.014402 -65.739027 -3.822569 -6.032888 -64.610584 -0.000003 -0.000000 -0.000001 -0.000001 0.000002 -0.000001 -2.807338 7.331499 2.517209 45.419563 38.720954 48.117621 0.026843 39.286657 0.001990 43.676973 0.977721 2.290315 -6.626239 8.562662 -25.975790 6.562818 -17.460118 1.999930 0.000004 -0.000015 -0.000000 -0.000000 0.000001 0.000001 -7.997324 -4.084227 48.354669 1.127619 -1.874137 58.931521 -0.000000 -0.000001 0.000001 0.000000 0.000000 0.000000 -2.271793 -1.478206 42.919560 -2.548674 3.399248 73.495260 -0.000002 0.000001 0.000001 -0.000000 0.000000 -0.000001 -0.207242 0.344856 44.723368 -3.893198 5.677656 66.906149 0.000001 -0.000000 -0.000001 -0.000000 0.000000 -0.000001 3.489138 1.855908 50.150206 -4.599359 8.339623 57.685606 -0.000002 0.000000 -0.000000 -0.000000 0.000000 -0.000000 -77.483544 -68.737753 59.251502 98.688700 -53.530388 -49.359202 65.615421 0.127266 -4.236496 -47.020819 -0.017515 -4.322115 -0.000000 -0.000001 0.000000 -43.566307 24.757547 -38.958965 117.326777 32.828952 19.669936 -20.469426 14.334848 -4.021448 -24.782699 0.155807 -0.922736 -0.000000 -0.000000 0.000000 
-0.350463 33.565498 11.336971 -24.663497 2.379989 -2.123502 5.700417 -0.173593 1.510244 11.407434 -1.529829 2.103727 11.407432 -1.529829 2.103727 4.730731 -0.342391 -2.165491 5.625024 -2.221557 1.869897 0.000000 0.000000 0.000000 -2.520425 -9.792748 -13.013238 25.763612 3.159678 -65.805902 0.027375 -38.579074 0.007137 89.497232 -24.725857 30.410202 -7.219771 -8.568676 25.321248 8.345300 23.967322 -3.558653 0.000001 -0.000004 -0.000005 0.000000 -0.000001 0.000000 -5.298672 4.809294 -55.662340 0.751293 0.897960 -72.728565 0.000001 0.000016 -0.000002 -0.000000 0.000000 -0.000000 -1.759206 0.416401 -47.384752 -3.877137 -4.607779 -80.001493 -0.000004 -0.000011 0.000002 -0.000000 0.000001 0.000000 -2.626667 -0.329287 -64.094864 -3.330473 -4.621253 -71.679249 -0.000003 -0.000008 0.000003 -0.000000 0.000001 -0.000000 -2.053336 -2.017588 -65.807541 -3.837612 -6.039837 -64.753445 -0.000002 -0.000001 -0.000001 -0.000002 0.000001 0.000000 -2.860837 7.541799 2.738248 43.964053 38.132092 48.873651 0.027329 39.120875 0.001625 44.836387 1.250368 2.709599 -6.910543 9.118874 -25.501153 6.635314 -17.581925 2.015644 0.000004 -0.000016 -0.000001 -0.000000 -0.000000 -0.000002 -7.998218 -4.080831 48.308528 1.127483 -1.874071 58.926965 -0.000000 0.000000 0.000002 0.000000 0.000000 0.000001 -2.267953 -1.482396 42.954940 -2.549755 3.399568 73.513633 -0.000000 0.000003 0.000003 -0.000001 0.000001 -0.000002 -0.201536 0.339437 44.775032 -3.896941 5.679237 66.943818 0.000001 -0.000000 0.000001 0.000001 -0.000000 -0.000002 3.499009 1.847525 50.147426 -4.599253 8.339554 57.685107 -0.000001 0.000000 0.000001 -0.000000 0.000001 -0.000001 -68.329882 -68.015031 65.335786 96.945355 -54.057840 -51.069973 62.043273 -0.747786 -4.619645 -48.635339 0.008293 -3.318646 -0.000000 0.000001 0.000000 -44.390953 25.794165 -40.027262 116.842994 33.568389 20.270337 -18.804486 14.063996 -4.121737 -24.782674 0.155814 -0.922726 0.000000 -0.000000 -0.000000 
